<svg width="1600" height="512" viewBox="0 0 1600 512" fill="none" xmlns="http://www.w3.org/2000/svg">
<path d="M705.173 103.265H727.355L765.923 197.437H767.342L805.91 103.265H828.093V224.411H810.702V136.746H809.578L773.849 224.233H759.416L723.687 136.687H722.564V224.411H705.173V103.265ZM873.026 226.422C867.269 226.422 862.063 225.357 857.41 223.228C852.756 221.059 849.069 217.924 846.348 213.822C843.666 209.721 842.326 204.693 842.326 198.738C842.326 193.612 843.312 189.392 845.283 186.08C847.255 182.767 849.917 180.145 853.269 178.212C856.621 176.28 860.367 174.821 864.508 173.835C868.649 172.849 872.868 172.1 877.167 171.587C882.609 170.956 887.026 170.443 890.417 170.049C893.809 169.615 896.273 168.925 897.811 167.979C899.349 167.032 900.118 165.494 900.118 163.365V162.951C900.118 157.785 898.659 153.782 895.741 150.943C892.862 148.103 888.564 146.684 882.846 146.684C876.891 146.684 872.198 148.005 868.767 150.647C865.376 153.25 863.029 156.148 861.728 159.342L845.106 155.557C847.078 150.036 849.956 145.579 853.742 142.188C857.567 138.757 861.964 136.273 866.933 134.735C871.902 133.157 877.127 132.369 882.609 132.369C886.237 132.369 890.082 132.802 894.144 133.67C898.245 134.498 902.07 136.036 905.62 138.284C909.208 140.532 912.146 143.746 914.433 147.926C916.721 152.067 917.864 157.449 917.864 164.075V224.411H900.592V211.989H899.882C898.738 214.276 897.023 216.524 894.735 218.732C892.448 220.941 889.51 222.774 885.922 224.233C882.333 225.693 878.034 226.422 873.026 226.422ZM876.871 212.225C881.761 212.225 885.941 211.259 889.412 209.327C892.921 207.394 895.583 204.871 897.397 201.755C899.251 198.6 900.177 195.229 900.177 191.64V179.928C899.546 180.559 898.324 181.15 896.51 181.702C894.735 182.215 892.704 182.668 890.417 183.063C888.13 183.418 885.902 183.753 883.733 184.068C881.564 184.344 879.75 184.581 878.291 184.778C874.86 185.212 871.725 185.942 868.885 186.967C866.086 187.992 863.838 189.471 862.142 191.403C860.486 193.296 859.658 195.82 859.658 198.975C859.658 203.352 861.274 206.665 864.508 208.913C867.742 211.121 871.863 212.225 876.871 212.225ZM932.866 224.411V212.284L982.082 149.76V148.931H934.463V133.552H1004.15V146.447L956.823 208.203V209.031H1005.8V224.411H932.866ZM1056.56 226.245C1047.61 226.245 1039.9 224.332 1033.43 220.507C1027.01 216.642 1022.04 211.22 1018.53 204.24C1015.06 197.22 1013.32 188.998 1013.32 179.573C1013.32 170.266 1015.06 162.063 1018.53 154.965C1022.04 147.867 1026.93 142.326 1033.2 138.343C1039.51 134.36 1046.88 132.369 1055.32 132.369C1060.45 132.369 1065.42 133.216 1070.23 134.912C1075.04 136.608 1079.36 139.27 1083.18 142.898C1087.01 146.526 1090.02 151.238 1092.23 157.035C1094.44 162.793 1095.54 169.793 1095.54 178.035V184.305H1023.32V171.055H1078.21C1078.21 166.401 1077.27 162.28 1075.37 158.692C1073.48 155.064 1070.82 152.205 1067.39 150.115C1064 148.024 1060.01 146.979 1055.44 146.979C1050.47 146.979 1046.13 148.202 1042.42 150.647C1038.76 153.052 1035.92 156.207 1033.91 160.111C1031.93 163.976 1030.95 168.176 1030.95 172.711V183.063C1030.95 189.136 1032.01 194.302 1034.14 198.561C1036.31 202.82 1039.33 206.073 1043.19 208.321C1047.06 210.53 1051.57 211.634 1056.74 211.634C1060.09 211.634 1063.15 211.161 1065.91 210.214C1068.67 209.228 1071.05 207.769 1073.07 205.837C1075.08 203.904 1076.61 201.519 1077.68 198.679L1094.42 201.696C1093.08 206.626 1090.67 210.944 1087.2 214.651C1083.77 218.318 1079.45 221.177 1074.25 223.228C1069.08 225.239 1063.19 226.245 1056.56 226.245ZM1108.5 224.411V133.552H1125.48V148.34H1126.61C1128.5 143.332 1131.59 139.427 1135.89 136.628C1140.19 133.788 1145.34 132.369 1151.33 132.369C1157.4 132.369 1162.49 133.788 1166.59 136.628C1170.73 139.467 1173.79 143.371 1175.76 148.34H1176.71C1178.88 143.489 1182.33 139.625 1187.06 136.746C1191.79 133.828 1197.43 132.369 1203.98 132.369C1212.22 132.369 1218.94 134.952 1224.15 140.118C1229.39 145.284 1232.02 153.072 1232.02 163.483V224.411H1214.33V165.139C1214.33 158.987 1212.65 154.531 1209.3 151.771C1205.95 149.01 1201.95 147.63 1197.29 147.63C1191.54 147.63 1187.06 149.405 1183.87 152.954C1180.67 156.464 1179.07 160.979 1179.07 166.5V224.411H1161.45V164.015C1161.45 159.086 1159.91 155.123 1156.83 152.126C1153.76 149.129 1149.75 147.63 1144.82 147.63C1141.47 147.63 1138.38 148.517 1135.54 150.292C1132.74 152.027 1130.47 154.452 1128.74 157.568C1127.04 160.683 1126.19 164.292 1126.19 168.393V224.411H1108.5ZM1275.5 226.422C1269.74 226.422 1264.54 225.357 1259.88 223.228C1255.23 221.059 1251.54 217.924 1248.82 213.822C1246.14 209.721 1244.8 204.693 1244.8 198.738C1244.8 193.612 1245.79 189.392 1247.76 186.08C1249.73 182.767 1252.39 180.145 1255.74 178.212C1259.1 176.28 1262.84 174.821 1266.98 173.835C1271.12 172.849 1275.34 172.1 1279.64 171.587C1285.08 170.956 1289.5 170.443 1292.89 170.049C1296.28 169.615 1298.75 168.925 1300.29 167.979C1301.82 167.032 1302.59 165.494 1302.59 163.365V162.951C1302.59 157.785 1301.13 153.782 1298.22 150.943C1295.34 148.103 1291.04 146.684 1285.32 146.684C1279.37 146.684 1274.67 148.005 1271.24 150.647C1267.85 153.25 1265.5 156.148 1264.2 159.342L1247.58 155.557C1249.55 150.036 1252.43 145.579 1256.22 142.188C1260.04 138.757 1264.44 136.273 1269.41 134.735C1274.38 133.157 1279.6 132.369 1285.08 132.369C1288.71 132.369 1292.56 132.802 1296.62 133.67C1300.72 134.498 1304.54 136.036 1308.09 138.284C1311.68 140.532 1314.62 143.746 1316.91 147.926C1319.2 152.067 1320.34 157.449 1320.34 164.075V224.411H1303.07V211.989H1302.36C1301.21 214.276 1299.5 216.524 1297.21 218.732C1294.92 220.941 1291.98 222.774 1288.4 224.233C1284.81 225.693 1280.51 226.422 1275.5 226.422ZM1279.35 212.225C1284.24 212.225 1288.42 211.259 1291.89 209.327C1295.4 207.394 1298.06 204.871 1299.87 201.755C1301.73 198.6 1302.65 195.229 1302.65 191.64V179.928C1302.02 180.559 1300.8 181.15 1298.98 181.702C1297.21 182.215 1295.18 182.668 1292.89 183.063C1290.6 183.418 1288.38 183.753 1286.21 184.068C1284.04 184.344 1282.22 184.581 1280.77 184.778C1277.33 185.212 1274.2 185.942 1271.36 186.967C1268.56 187.992 1266.31 189.471 1264.62 191.403C1262.96 193.296 1262.13 195.82 1262.13 198.975C1262.13 203.352 1263.75 206.665 1266.98 208.913C1270.22 211.121 1274.34 212.225 1279.35 212.225ZM1335.34 224.411V212.284L1384.56 149.76V148.931H1336.94V133.552H1406.62V146.447L1359.3 208.203V209.031H1408.28V224.411H1335.34ZM1459.04 226.245C1450.08 226.245 1442.38 224.332 1435.91 220.507C1429.48 216.642 1424.51 211.22 1421 204.24C1417.53 197.22 1415.8 188.998 1415.8 179.573C1415.8 170.266 1417.53 162.063 1421 154.965C1424.51 147.867 1429.4 142.326 1435.67 138.343C1441.98 134.36 1449.36 132.369 1457.79 132.369C1462.92 132.369 1467.89 133.216 1472.7 134.912C1477.51 136.608 1481.83 139.27 1485.66 142.898C1489.48 146.526 1492.5 151.238 1494.71 157.035C1496.91 162.793 1498.02 169.793 1498.02 178.035V184.305H1425.79V171.055H1480.69C1480.69 166.401 1479.74 162.28 1477.85 158.692C1475.95 155.064 1473.29 152.205 1469.86 150.115C1466.47 148.024 1462.49 146.979 1457.91 146.979C1452.94 146.979 1448.61 148.202 1444.9 150.647C1441.23 153.052 1438.39 156.207 1436.38 160.111C1434.41 163.976 1433.42 168.176 1433.42 172.711V183.063C1433.42 189.136 1434.49 194.302 1436.62 198.561C1438.79 202.82 1441.8 206.073 1445.67 208.321C1449.53 210.53 1454.05 211.634 1459.21 211.634C1462.57 211.634 1465.62 211.161 1468.38 210.214C1471.14 209.228 1473.53 207.769 1475.54 205.837C1477.55 203.904 1479.09 201.519 1480.15 198.679L1496.89 201.696C1495.55 206.626 1493.15 210.944 1489.68 214.651C1486.25 218.318 1481.93 221.177 1476.72 223.228C1471.56 225.239 1465.66 226.245 1459.04 226.245Z" fill="#626258"/>
<path d="M671.164 405.589V284.443H716.593C725.9 284.443 733.708 286.178 740.018 289.649C746.367 293.119 751.159 297.891 754.392 303.964C757.665 309.997 759.302 316.859 759.302 324.549C759.302 332.318 757.665 339.219 754.392 345.253C751.119 351.286 746.288 356.038 739.9 359.509C733.511 362.939 725.644 364.655 716.298 364.655H686.189V346.613H713.34C718.782 346.613 723.238 345.667 726.709 343.774C730.179 341.881 732.742 339.278 734.398 335.966C736.094 332.653 736.942 328.847 736.942 324.549C736.942 320.251 736.094 316.465 734.398 313.192C732.742 309.918 730.159 307.375 726.649 305.561C723.179 303.707 718.703 302.781 713.222 302.781H693.11V405.589H671.164ZM777.418 405.589V314.73H798.831V405.589H777.418ZM788.183 301.834C784.792 301.834 781.874 300.71 779.429 298.462C776.984 296.175 775.761 293.434 775.761 290.24C775.761 287.006 776.984 284.266 779.429 282.018C781.874 279.731 784.792 278.587 788.183 278.587C791.614 278.587 794.533 279.731 796.938 282.018C799.383 284.266 800.606 287.006 800.606 290.24C800.606 293.434 799.383 296.175 796.938 298.462C794.533 300.71 791.614 301.834 788.183 301.834ZM860.365 441.554C852.675 441.554 846.07 440.509 840.549 438.419C835.028 436.368 830.591 433.608 827.239 430.137C823.887 426.667 821.561 422.822 820.259 418.603L839.543 413.929C840.411 415.704 841.673 417.459 843.329 419.194C844.985 420.969 847.213 422.428 850.013 423.571C852.853 424.754 856.422 425.346 860.72 425.346C866.793 425.346 871.821 423.867 875.804 420.91C879.787 417.991 881.779 413.18 881.779 406.476V389.263H880.714C879.61 391.471 877.993 393.739 875.863 396.065C873.773 398.392 870.993 400.344 867.523 401.921C864.092 403.499 859.774 404.287 854.568 404.287C847.588 404.287 841.259 402.651 835.58 399.378C829.941 396.065 825.445 391.136 822.093 384.589C818.78 378.004 817.124 369.762 817.124 359.863C817.124 349.886 818.78 341.467 822.093 334.605C825.445 327.704 829.96 322.479 835.639 318.929C841.318 315.341 847.647 313.547 854.627 313.547C859.951 313.547 864.328 314.454 867.759 316.268C871.23 318.042 873.99 320.191 876.041 322.715C878.091 325.2 879.649 327.546 880.714 329.754H881.897V314.73H903.015V407.068C903.015 414.836 901.161 421.264 897.454 426.352C893.747 431.439 888.68 435.244 882.252 437.768C875.824 440.292 868.528 441.554 860.365 441.554ZM860.543 387.488C865.078 387.488 868.942 386.384 872.137 384.175C875.331 381.967 877.756 378.792 879.412 374.652C881.069 370.511 881.897 365.542 881.897 359.745C881.897 354.027 881.069 349.019 879.412 344.72C877.796 340.422 875.39 337.089 872.196 334.723C869.041 332.318 865.157 331.115 860.543 331.115C855.771 331.115 851.788 332.357 848.594 334.842C845.399 337.326 842.994 340.737 841.377 345.075C839.76 349.374 838.952 354.264 838.952 359.745C838.952 365.306 839.76 370.176 841.377 374.356C843.033 378.497 845.459 381.73 848.653 384.057C851.887 386.344 855.85 387.488 860.543 387.488ZM964.475 441.554C956.785 441.554 950.179 440.509 944.658 438.419C939.137 436.368 934.701 433.608 931.349 430.137C927.997 426.667 925.67 422.822 924.369 418.603L943.653 413.929C944.52 415.704 945.782 417.459 947.439 419.194C949.095 420.969 951.323 422.428 954.123 423.571C956.962 424.754 960.531 425.346 964.83 425.346C970.903 425.346 975.931 423.867 979.914 420.91C983.897 417.991 985.888 413.18 985.888 406.476V389.263H984.823C983.719 391.471 982.102 393.739 979.973 396.065C977.883 398.392 975.103 400.344 971.632 401.921C968.201 403.499 963.883 404.287 958.678 404.287C951.698 404.287 945.368 402.651 939.69 399.378C934.05 396.065 929.555 391.136 926.203 384.589C922.89 378.004 921.234 369.762 921.234 359.863C921.234 349.886 922.89 341.467 926.203 334.605C929.555 327.704 934.07 322.479 939.749 318.929C945.427 315.341 951.757 313.547 958.737 313.547C964.061 313.547 968.438 314.454 971.869 316.268C975.339 318.042 978.1 320.191 980.15 322.715C982.201 325.2 983.759 327.546 984.823 329.754H986.006V314.73H1007.12V407.068C1007.12 414.836 1005.27 421.264 1001.56 426.352C997.857 431.439 992.789 435.244 986.361 437.768C979.933 440.292 972.638 441.554 964.475 441.554ZM964.652 387.488C969.187 387.488 973.052 386.384 976.246 384.175C979.44 381.967 981.866 378.792 983.522 374.652C985.178 370.511 986.006 365.542 986.006 359.745C986.006 354.027 985.178 349.019 983.522 344.72C981.905 340.422 979.5 337.089 976.305 334.723C973.151 332.318 969.266 331.115 964.652 331.115C959.88 331.115 955.898 332.357 952.703 334.842C949.509 337.326 947.103 340.737 945.487 345.075C943.87 349.374 943.061 354.264 943.061 359.745C943.061 365.306 943.87 370.176 945.487 374.356C947.143 378.497 949.568 381.73 952.762 384.057C955.996 386.344 959.959 387.488 964.652 387.488ZM1042.38 439.661C1039.46 439.661 1036.76 439.424 1034.28 438.951C1031.83 438.517 1029.88 438.005 1028.42 437.413L1033.39 420.732C1036.5 421.639 1039.28 422.073 1041.73 422.033C1044.17 421.994 1046.32 421.225 1048.18 419.726C1050.07 418.267 1051.67 415.822 1052.97 412.391L1054.8 407.482L1021.85 314.73H1044.57L1065.51 383.347H1066.45L1087.45 314.73H1110.23L1073.85 416.591C1072.15 421.402 1069.91 425.523 1067.11 428.954C1064.31 432.425 1060.87 435.067 1056.81 436.881C1052.79 438.734 1047.98 439.661 1042.38 439.661ZM1148.99 405.589V284.443H1195.36C1204.12 284.443 1211.39 285.823 1217.19 288.584C1223.03 291.305 1227.39 295.032 1230.26 299.764C1233.18 304.496 1234.64 309.859 1234.64 315.854C1234.64 320.783 1233.7 325.003 1231.8 328.512C1229.91 331.983 1227.37 334.802 1224.17 336.971C1220.98 339.14 1217.41 340.698 1213.46 341.644V342.827C1217.76 343.064 1221.88 344.385 1225.83 346.791C1229.81 349.157 1233.06 352.509 1235.59 356.847C1238.11 361.185 1239.37 366.429 1239.37 372.581C1239.37 378.852 1237.86 384.491 1234.82 389.499C1231.78 394.468 1227.21 398.392 1221.1 401.271C1214.98 404.149 1207.29 405.589 1198.03 405.589H1148.99ZM1170.93 387.251H1194.54C1202.5 387.251 1208.24 385.733 1211.75 382.697C1215.3 379.621 1217.07 375.677 1217.07 370.866C1217.07 367.277 1216.19 364.044 1214.41 361.165C1212.64 358.247 1210.11 355.959 1206.84 354.303C1203.57 352.607 1199.66 351.759 1195.13 351.759H1170.93V387.251ZM1170.93 335.966H1192.64C1196.43 335.966 1199.84 335.275 1202.88 333.895C1205.91 332.476 1208.3 330.484 1210.03 327.921C1211.81 325.318 1212.7 322.242 1212.7 318.693C1212.7 314 1211.04 310.135 1207.73 307.099C1204.45 304.062 1199.58 302.544 1193.12 302.544H1170.93V335.966ZM1283.66 407.423C1277.91 407.423 1272.72 406.397 1268.11 404.347C1263.53 402.257 1259.9 399.181 1257.22 395.119C1254.58 391.057 1253.26 386.049 1253.26 380.094C1253.26 374.967 1254.21 370.728 1256.1 367.376C1257.99 364.024 1260.58 361.342 1263.85 359.331C1267.12 357.32 1270.81 355.802 1274.91 354.776C1279.05 353.712 1283.33 352.943 1287.75 352.469C1293.07 351.917 1297.39 351.424 1300.7 350.99C1304.01 350.517 1306.42 349.807 1307.92 348.861C1309.46 347.875 1310.22 346.357 1310.22 344.306V343.951C1310.22 339.495 1308.9 336.044 1306.26 333.599C1303.62 331.154 1299.81 329.932 1294.84 329.932C1289.6 329.932 1285.44 331.076 1282.36 333.363C1279.33 335.65 1277.28 338.351 1276.21 341.467L1256.22 338.627C1257.79 333.107 1260.4 328.493 1264.03 324.786C1267.65 321.039 1272.09 318.239 1277.34 316.386C1282.58 314.493 1288.38 313.547 1294.73 313.547C1299.1 313.547 1303.46 314.059 1307.8 315.085C1312.14 316.11 1316.1 317.806 1319.69 320.172C1323.28 322.498 1326.16 325.673 1328.33 329.695C1330.53 333.718 1331.64 338.746 1331.64 344.779V405.589H1311.05V393.108H1310.34C1309.04 395.631 1307.21 397.998 1304.84 400.206C1302.51 402.375 1299.58 404.13 1296.03 405.471C1292.52 406.772 1288.4 407.423 1283.66 407.423ZM1289.23 391.688C1293.52 391.688 1297.25 390.84 1300.4 389.144C1303.56 387.409 1305.99 385.122 1307.68 382.283C1309.42 379.443 1310.28 376.347 1310.28 372.995V362.289C1309.61 362.841 1308.47 363.354 1306.85 363.827C1305.28 364.3 1303.5 364.714 1301.53 365.069C1299.56 365.424 1297.61 365.739 1295.67 366.015C1293.74 366.291 1292.06 366.528 1290.64 366.725C1287.45 367.159 1284.59 367.869 1282.07 368.855C1279.54 369.841 1277.55 371.221 1276.09 372.995C1274.63 374.731 1273.9 376.978 1273.9 379.739C1273.9 383.682 1275.34 386.66 1278.22 388.671C1281.1 390.682 1284.77 391.688 1289.23 391.688ZM1374.58 352.351V405.589H1353.17V314.73H1373.64V330.169H1374.7C1376.79 325.081 1380.12 321.039 1384.7 318.042C1389.31 315.045 1395.01 313.547 1401.79 313.547C1408.06 313.547 1413.53 314.887 1418.18 317.569C1422.87 320.251 1426.5 324.135 1429.06 329.222C1431.67 334.309 1432.95 340.481 1432.91 347.737V405.589H1411.49V351.05C1411.49 344.977 1409.92 340.225 1406.76 336.794C1403.65 333.363 1399.33 331.647 1393.81 331.647C1390.06 331.647 1386.73 332.476 1383.81 334.132C1380.93 335.749 1378.66 338.095 1377.01 341.171C1375.39 344.247 1374.58 347.974 1374.58 352.351ZM1474.2 377.077L1474.14 351.227H1477.57L1510.22 314.73H1535.24L1495.08 359.449H1490.64L1474.2 377.077ZM1454.68 405.589V284.443H1476.09V405.589H1454.68ZM1511.7 405.589L1482.12 364.241L1496.56 349.157L1537.31 405.589H1511.7Z" fill="#626258"/>
<g clip-path="url(#clip0_2014_125)">
<g filter="url(#filter0_d_2014_125)">
<path fill-rule="evenodd" clip-rule="evenodd" d="M168.784 46.7592C194.546 32.2803 247.944 73.4517 247.961 73.465C247.961 73.465 253.227 74.4053 256.989 73.465C260.75 72.5246 344.816 42.6217 412.897 60.8644C519.158 85.1252 547.368 132.331 574.261 187.058C586.298 185.554 590.247 182.545 597.579 178.219C597.541 178.201 581.635 171.428 574.261 155.275C568.422 142.486 570.686 123.679 588.177 116.345C601.176 110.894 612.79 112.417 622.218 122.551C627.985 129.133 636.135 143.991 626.732 165.618C630.494 167.687 637.525 162.534 642.34 161.481C648.172 160.206 652.686 169.568 650.616 172.201C647.366 176.338 638.766 183.109 616.574 181.98C605.667 193.829 594.761 199.847 578.397 202.104C578.397 202.104 590.144 242.351 574.261 287.675C558.374 333 530.252 352.559 516.901 362.903L494.896 432.678C487.56 447.346 473.266 451.482 473.266 451.482H431.892C423.125 449.588 420.796 446.216 418.916 436.435C422.862 416.14 420.799 399.786 420.796 399.764C400.109 403.902 351.023 407.099 315.666 402.209C308.143 436.061 303.63 446.029 289.712 451.482H249.278C235.925 449.79 235.925 414.057 222.384 378.888C180.821 362.15 157.5 334.504 142.078 309.867C128.914 300.652 100.139 295.01 93.9331 292.565C87.7268 290.12 88.291 289.556 83.7774 279.588L76.8188 217.526C77.6651 208.338 79.1879 204.96 86.0342 202.856C117.254 193.265 121.579 195.145 132.111 184.614C146.78 151.325 168.784 125.56 180.633 115.028C184.018 97.1616 163.142 59.7359 168.784 46.7592ZM600.214 128.945C593.256 128.945 588.177 131.954 586.672 141.358C588.177 155.275 600.214 161.481 609.429 165.618C615.07 159.788 615.069 148.504 615.069 143.239C613.565 137.973 610.304 128.945 600.214 128.945Z" fill="#F5F5F2"/>
</g>
<path d="M301.937 83.8091C301.937 83.8091 329.207 75.9102 371.711 75.9102C412.887 79.1065 434.89 88.6939 434.902 88.6988C442.048 92.2722 445.434 109.951 424.934 109.951C424.926 109.945 416.822 103.554 364.564 98.6665C315.307 101.111 308.712 105.998 308.708 106.001C296.483 106.001 292.534 90.9558 301.937 83.8091Z" fill="#626258"/>
<path d="M200.169 206.471C210.715 206.471 219.264 197.922 219.264 187.376C219.264 176.831 210.715 168.282 200.169 168.282C189.624 168.282 181.075 176.831 181.075 187.376C181.075 197.922 189.624 206.471 200.169 206.471Z" fill="#626258"/>
<mask id="mask0_2014_125" style="mask-type:alpha" maskUnits="userSpaceOnUse" x="76" y="43" width="576" height="409">
<path fill-rule="evenodd" clip-rule="evenodd" d="M168.784 46.7592C194.546 32.2803 247.944 73.4517 247.961 73.465C247.961 73.465 253.227 74.4053 256.989 73.465C260.75 72.5246 344.816 42.6217 412.897 60.8644C519.158 85.1252 547.368 132.331 574.261 187.058C586.298 185.554 590.247 182.545 597.579 178.219C597.541 178.201 581.635 171.428 574.261 155.275C568.422 142.486 570.686 123.679 588.177 116.345C601.176 110.894 612.79 112.417 622.218 122.551C627.985 129.133 636.135 143.991 626.732 165.618C630.494 167.687 637.525 162.534 642.34 161.481C648.172 160.206 652.686 169.568 650.616 172.201C647.366 176.338 638.766 183.109 616.574 181.98C605.667 193.829 594.761 199.847 578.397 202.104C578.397 202.104 590.144 242.351 574.261 287.675C558.374 333 530.252 352.559 516.901 362.903L494.896 432.678C487.56 447.346 473.266 451.482 473.266 451.482H431.892C423.125 449.588 420.796 446.216 418.916 436.435C422.862 416.14 420.799 399.786 420.796 399.764C400.109 403.902 351.023 407.099 315.666 402.209C308.143 436.061 303.63 446.029 289.712 451.482H249.278C235.925 449.79 235.925 414.057 222.384 378.888C180.821 362.15 157.5 334.504 142.078 309.867C128.914 300.652 100.139 295.01 93.9331 292.565C87.7268 290.12 88.291 289.556 83.7774 279.588L76.8188 217.526C77.6651 208.338 79.1879 204.96 86.0342 202.856C117.254 193.265 121.579 195.145 132.111 184.614C146.78 151.325 168.784 125.56 180.633 115.028C184.018 97.1616 163.142 59.7359 168.784 46.7592ZM600.214 128.945C593.256 128.945 588.177 131.954 586.672 141.358C588.177 155.275 600.214 161.481 609.429 165.618C615.07 159.788 615.069 148.504 615.069 143.239C613.565 137.973 610.304 128.945 600.214 128.945ZM371.71 75.9099C329.207 75.9099 301.937 83.8088 301.937 83.8088C292.533 90.9555 296.483 106.001 308.707 106.001C308.712 105.997 315.306 101.11 364.564 98.6662C416.822 103.554 424.926 109.944 424.934 109.95C445.433 109.95 442.048 92.2719 434.901 88.6985C434.89 88.6936 412.887 79.1062 371.71 75.9099Z" fill="#FAFAF7"/>
</mask>
<g mask="url(#mask0_2014_125)">
<path d="M420.901 316.073C446.211 316.073 466.728 295.555 466.728 270.246C466.728 244.937 446.211 224.419 420.901 224.419C395.592 224.419 375.075 244.937 375.075 270.246C375.075 295.555 395.592 316.073 420.901 316.073Z" fill="#F6E58D"/>
<path d="M309.008 376.03C334.317 376.03 354.834 355.512 354.834 330.203C354.834 304.893 334.317 284.376 309.008 284.376C283.698 284.376 263.181 304.893 263.181 330.203C263.181 355.512 283.698 376.03 309.008 376.03Z" fill="#F6E58D"/>
<path d="M422.429 426.44C447.738 426.44 468.256 405.922 468.256 380.613C468.256 355.303 447.738 334.786 422.429 334.786C397.12 334.786 376.602 355.303 376.602 380.613C376.602 405.922 397.12 426.44 422.429 426.44Z" fill="#F6E58D"/>
<path d="M384.135 188.612C367.11 169.886 368.489 140.902 387.216 123.877C405.943 106.851 434.926 108.23 451.951 126.957C468.977 145.684 467.598 174.667 448.871 191.693C430.144 208.718 401.161 207.339 384.135 188.612Z" fill="#F6E58D"/>
<path d="M504.813 357.79C487.787 339.063 489.166 310.08 507.893 293.055C526.62 276.029 555.603 277.408 572.629 296.135C589.654 314.862 588.275 343.845 569.548 360.871C550.821 377.896 521.838 376.517 504.813 357.79Z" fill="#F6E58D"/>
<path d="M499.466 241.313C482.441 222.586 483.82 193.603 502.547 176.577C521.274 159.551 550.257 160.931 567.282 179.657C584.308 198.384 582.929 227.367 564.202 244.393C545.475 261.419 516.492 260.039 499.466 241.313Z" fill="#F6E58D"/>
</g>
</g>
<defs>
<filter id="filter0_d_2014_125" x="73" y="41.0001" width="581.945" height="415.446" filterUnits="userSpaceOnUse" color-interpolation-filters="sRGB">
<feFlood flood-opacity="0" result="BackgroundImageFix"/>
<feColorMatrix in="SourceAlpha" type="matrix" values="0 0 0 0 0 0 0 0 0 0 0 0 0 0 0 0 0 0 127 0" result="hardAlpha"/>
<feOffset dy="1.14567"/>
<feGaussianBlur stdDeviation="1.90945"/>
<feComposite in2="hardAlpha" operator="out"/>
<feColorMatrix type="matrix" values="0 0 0 0 0.384314 0 0 0 0 0.384314 0 0 0 0 0.345098 0 0 0 0.45 0"/>
<feBlend mode="normal" in2="BackgroundImageFix" result="effect1_dropShadow_2014_125"/>
<feBlend mode="normal" in="SourceGraphic" in2="effect1_dropShadow_2014_125" result="shape"/>
</filter>
<clipPath id="clip0_2014_125">
<rect width="582" height="415.496" fill="white" transform="translate(73 41)"/>
</clipPath>
</defs>
</svg>
